ffmpeg version 3.4.8-0ubuntu0.2 Copyright (c) 2000-2020 the FFmpeg developers
  built with gcc 7 (Ubuntu 7.5.0-3ubuntu1~18.04)
  configuration: --prefix=/usr --extra-version=0ubuntu0.2 --toolchain=hardened --libdir=/usr/lib/x86_64-linux-gnu --incdir=/usr/include/x86_64-linux-gnu --enable-gpl --disable-stripping --enable-avresample --enable-avisynth --enable-gnutls --enable-ladspa --enable-libass --enable-libbluray --enable-libbs2b --enable-libcaca --enable-libcdio --enable-libflite --enable-libfontconfig --enable-libfreetype --enable-libfribidi --enable-libgme --enable-libgsm --enable-libmp3lame --enable-libmysofa --enable-libopenjpeg --enable-libopenmpt --enable-libopus --enable-libpulse --enable-librubberband --enable-librsvg --enable-libshine --enable-libsnappy --enable-libsoxr --enable-libspeex --enable-libssh --enable-libtheora --enable-libtwolame --enable-libvorbis --enable-libvpx --enable-libwavpack --enable-libwebp --enable-libx265 --enable-libxml2 --enable-libxvid --enable-libzmq --enable-libzvbi --enable-omx --enable-openal --enable-opengl --enable-sdl2 --enable-libdc1394 --enable-libdrm --enable-libiec61883 --enable-chromaprint --enable-frei0r --enable-libopencv --enable-libx264 --enable-shared
  libavutil      55. 78.100 / 55. 78.100
  libavcodec     57.107.100 / 57.107.100
  libavformat    57. 83.100 / 57. 83.100
  libavdevice    57. 10.100 / 57. 10.100
  libavfilter     6.107.100 /  6.107.100
  libavresample   3.  7.  0 /  3.  7.  0
  libswscale      4.  8.100 /  4.  8.100
  libswresample   2.  9.100 /  2.  9.100
  libpostproc    54.  7.100 / 54.  7.100
[rawvideo @ 0x55a4264aaa20] Estimating duration from bitrate, this may be inaccurate
Input #0, rawvideo, from '../../SVC-Encoder-20220109T061506Z-001/SVC-Encoder/Dataset/RollerCoaster/ERP_8x8/tile_yuv/Tile_24_480x240.yuv':
  Duration: 00:00:10.00, start: 0.000000, bitrate: 41472 kb/s
    Stream #0:0: Video: rawvideo (I420 / 0x30323449), yuv420p, 480x240, 41472 kb/s, 30 tbr, 30 tbn, 30 tbc
Stream mapping:
  Stream #0:0 -> #0:0 (rawvideo (native) -> h264 (libx264))
Press [q] to stop, [?] for help
[libx264 @ 0x55a4264b7c60] using cpu capabilities: MMX2 SSE2Fast LZCNT SSSE3 SSE4.2 AVX
[libx264 @ 0x55a4264b7c60] profile High, level 2.1
Output #0, rawvideo, to 'RollerCoaster_Tile_24_480x240_x264_QP_28.h264':
  Metadata:
    encoder         : Lavf57.83.100
    Stream #0:0: Video: h264 (libx264), yuv420p, 480x240, q=-1--1, 30 fps, 30 tbn, 30 tbc
    Metadata:
      encoder         : Lavc57.107.100 libx264
    Side data:
      cpb: bitrate max/min/avg: 0/0/0 buffer size: 0 vbv_delay: -1
frame=  140 fps=0.0 q=34.0 PSNR=Y:nan U:nan V:nan *:nan size=     114kB time=00:00:03.23 bitrate= 288.0kbits/s speed=6.46x    frame=  264 fps=264 q=34.0 PSNR=Y:nan U:nan V:nan *:nan size=     240kB time=00:00:07.36 bitrate= 267.1kbits/s speed=7.35x    frame=  300 fps=237 q=34.0 LPSNR=Y:inf U:inf V:inf *:inf size=     320kB time=00:00:09.93 bitrate= 264.2kbits/s speed=7.85x    
video:320kB audio:0kB subtitle:0kB other streams:0kB global headers:0kB muxing overhead: 0.000000%
[libx264 @ 0x55a4264b7c60] frame I:2     Avg QP:25.21  size: 20424  PSNR Mean Y:40.01 U:45.51 V:48.55 Avg:41.34 Global:41.33
[libx264 @ 0x55a4264b7c60] frame P:76    Avg QP:27.22  size:  3024  PSNR Mean Y:37.29 U:45.81 V:48.12 Avg:38.81 Global:38.73
[libx264 @ 0x55a4264b7c60] frame B:222   Avg QP:33.41  size:   258  PSNR Mean Y:36.95 U:45.61 V:48.06 Avg:38.48 Global:38.45
[libx264 @ 0x55a4264b7c60] consecutive B-frames:  1.3%  0.0%  0.0% 98.7%
[libx264 @ 0x55a4264b7c60] mb I  I16..4:  0.8% 86.3% 12.9%
[libx264 @ 0x55a4264b7c60] mb P  I16..4:  0.0%  0.0%  0.0%  P16..4: 41.2% 24.7% 17.1%  0.0%  0.0%    skip:17.0%
[libx264 @ 0x55a4264b7c60] mb B  I16..4:  0.0%  0.0%  0.0%  B16..8: 47.0%  1.9%  0.1%  direct: 0.1%  skip:51.0%  L0:35.2% L1:59.8% BI: 5.0%
[libx264 @ 0x55a4264b7c60] 8x8 transform intra:86.3% inter:60.9%
[libx264 @ 0x55a4264b7c60] coded y,uvDC,uvAC intra: 99.2% 88.7% 48.8% inter: 10.2% 5.1% 0.0%
[libx264 @ 0x55a4264b7c60] i16 v,h,dc,p:  0% 12% 50% 38%
[libx264 @ 0x55a4264b7c60] i8 v,h,dc,ddl,ddr,vr,hd,vl,hu:  8% 20% 13%  5%  9%  7% 13% 12% 12%
[libx264 @ 0x55a4264b7c60] i4 v,h,dc,ddl,ddr,vr,hd,vl,hu: 12% 17%  9%  6%  8%  9% 14% 16%  9%
[libx264 @ 0x55a4264b7c60] i8c dc,h,v,p: 38% 25% 18% 20%
[libx264 @ 0x55a4264b7c60] Weighted P-Frames: Y:1.3% UV:0.0%
[libx264 @ 0x55a4264b7c60] ref P L0: 62.9% 19.8% 15.0%  2.3%  0.0%
[libx264 @ 0x55a4264b7c60] ref B L0: 91.8%  7.7%  0.5%
[libx264 @ 0x55a4264b7c60] ref B L1: 89.9% 10.1%
[libx264 @ 0x55a4264b7c60] PSNR Mean Y:37.056 U:45.658 V:48.078 Avg:38.585 Global:38.533 kb/s:262.42
